# WaveFront *.obj file (generated by CINEMA 4D)

mtllib ./Controller.mtl

v 0.37037968635559 0.67645329236984 3.52457928657532
v 0.37413203716278 0.72198903560638 3.52457928657532
v 0.37265160679817 0.76589131355286 3.52457928657532
v 0.36397153139114 0.80575853586197 3.52457928657532
v 0.27932244539261 0.81150382757187 3.52457928657532
v -0.01110120024532 0.8115040063858 3.52457928657532
v -0.3015248477459 0.81150382757187 3.52457928657532
v -0.38617393374443 0.80575853586197 3.52457928657532
v -0.39485400915146 0.76589131355286 3.52457928657532
v -0.39633443951607 0.72198903560638 3.52457928657532
v -0.39258208870888 0.67645329236984 3.52457928657532
v -0.35846820473671 0.63399195671082 3.52457928657532
v -0.32675510644913 0.60008633136749 3.52457928657532
v -0.29084476828575 0.56730997562408 3.52457928657532
v -0.22501899302006 0.5625039935112 3.52457928657532
v -0.01110120024532 0.56250405311584 3.52457928657532
v 0.20281660556793 0.5625039935112 3.52457928657532
v 0.26864236593246 0.56730997562408 3.52457928657532
v 0.30455273389816 0.60008633136749 3.52457928657532
v 0.33626580238342 0.63399195671082 3.52457928657532
v 0.37037971615791 0.67645329236984 3.98391056060791
v 0.33626580238342 0.63399195671082 3.98391056060791
v 0.30455273389816 0.60008633136749 3.98391056060791
v 0.26864236593246 0.56730997562408 3.98391056060791
v 0.20281660556793 0.5625039935112 3.98391056060791
v -0.01110120024532 0.56250405311584 3.98391056060791
v -0.22501899302006 0.5625039935112 3.98391056060791
v -0.29084476828575 0.56730997562408 3.98391056060791
v -0.32675510644913 0.60008633136749 3.98391056060791
v -0.35846820473671 0.63399195671082 3.98391056060791
v -0.3925821185112 0.67645329236984 3.98391056060791
v -0.39633443951607 0.72198903560638 3.98391056060791
v -0.39485400915146 0.76589131355286 3.98391056060791
v -0.38617393374443 0.80575853586197 3.98391056060791
v -0.3015248477459 0.81150382757187 3.98391056060791
v -0.01110120024532 0.8115040063858 3.98391056060791
v 0.27932244539261 0.81150382757187 3.98391056060791
v 0.36397153139114 0.80575853586197 3.98391056060791
v 0.37265160679817 0.76589131355286 3.98391056060791
v 0.37413203716278 0.72198903560638 3.98391056060791
v 0.33816120028496 0.66669273376465 3.9166305065155
v 0.35009303689003 0.68417662382126 3.9166305065155
v 0.35526305437088 0.6543025970459 3.52457928657532
v 0.32024377584457 0.64753651618958 3.9166305065155
v 0.35526305437088 0.6543025970459 3.98391056060791
v 0.30408290028572 0.63025838136673 3.9166305065155
v 0.32010492682457 0.61671376228333 3.52457928657532
v 0.28853073716164 0.6136309504509 3.9166305065155
v 0.32010492682457 0.61671376228333 3.98391056060791
v 0.2725273668766 0.59652119874954 3.9166305065155
v 0.28738152980804 0.58172786235809 3.52457928657532
v 0.2588447034359 0.58599370718002 3.9166305065155
v 0.28738152980804 0.58172786235809 3.98391056060791
v 0.24575148522854 0.58288711309433 3.9166305065155
v 0.24838647246361 0.5625039935112 3.52457928657532
v 0.20281660556793 0.58288717269897 3.9166305065155
v 0.24838647246361 0.5625039935112 3.98391056060791
v 0.10813550651073 0.58288717269897 3.9166305065155
v 0.10813549906015 0.56250405311584 3.52457928657532
v -0.01110120024532 0.58288717269897 3.9166305065155
v 0.10813549906015 0.56250405311584 3.98391056060791
v -0.13033789396286 0.58288717269897 3.9166305065155
v -0.13033789396286 0.56250405311584 3.52457928657532
v -0.22501899302006 0.58288717269897 3.9166305065155
v -0.13033789396286 0.56250405311584 3.98391056060791
v -0.26795387268066 0.58288711309433 3.9166305065155
v -0.27058887481689 0.5625039935112 3.52457928657532
v -0.28104710578918 0.58599370718002 3.9166305065155
v -0.27058887481689 0.5625039935112 3.98391056060791
v -0.29472976922989 0.5965211391449 3.9166305065155
v -0.30958393216133 0.58172786235809 3.52457928657532
v -0.31073307991028 0.61363089084625 3.9166305065155
v -0.30958393216133 0.58172786235809 3.98391056060791
v -0.32628530263901 0.63025838136673 3.9166305065155
v -0.34230732917786 0.61671376228333 3.52457928657532
v -0.34244617819786 0.64753651618958 3.9166305065155
v -0.34230732917786 0.61671376228333 3.98391056060791
v -0.36036360263824 0.66669273376465 3.9166305065155
v -0.37746545672417 0.6543025970459 3.52457928657532
v -0.37229543924332 0.68417662382126 3.9166305065155
v -0.37746545672417 0.6543025970459 3.98391056060791
v -0.37559667229652 0.70083105564117 3.9166305065155
v -0.39710119366646 0.69925147294998 3.52457928657532
v -0.37490519881248 0.72133588790894 3.9166305065155
v -0.39710119366646 0.69925147294998 3.98391056060791
v -0.37416440248489 0.74330472946167 3.9166305065155
v -0.39559364318848 0.74395781755447 3.52457928657532
v -0.37342476844788 0.76523816585541 3.9166305065155
v -0.39559364318848 0.74395781755447 3.98391056060791
v -0.37279361486435 0.78395515680313 3.9166305065155
v -0.39409083127975 0.78852295875549 3.52457928657532
v -0.37063479423523 0.78865504264832 3.9166305065155
v -0.39409083127975 0.78852295875549 3.98391056060791
v -0.36110717058182 0.79112064838409 3.9166305065155
v -0.36397308111191 0.81150376796722 3.52457928657532
v -0.30152481794357 0.79112070798874 3.9166305065155
v -0.36397308111191 0.81150376796722 3.98391056060791
v -0.17286571860313 0.79112082719803 3.9166305065155
v -0.1728657335043 0.81150394678116 3.52457928657532
v -0.01110118813813 0.79112088680267 3.9166305065155
v -0.1728657335043 0.81150394678116 3.98391056060791
v 0.15066331624985 0.79112082719803 3.9166305065155
v 0.15066333115101 0.81150394678116 3.52457928657532
v 0.27932241559029 0.79112070798874 3.9166305065155
v 0.15066333115101 0.81150394678116 3.98391056060791
v 0.33890473842621 0.79112064838409 3.9166305065155
v 0.34177067875862 0.81150376796722 3.52457928657532
v 0.34843239188194 0.78865504264832 3.9166305065155
v 0.34177067875862 0.81150376796722 3.98391056060791
v 0.35059121251106 0.78395515680313 3.9166305065155
v 0.37188842892647 0.78852295875549 3.52457928657532
v 0.35122236609459 0.76523816585541 3.9166305065155
v 0.37188842892647 0.78852295875549 3.98391056060791
v 0.35196200013161 0.74330466985703 3.9166305065155
v 0.37339124083519 0.74395781755447 3.52457928657532
v 0.3527027964592 0.72133594751358 3.9166305065155
v 0.37339124083519 0.74395781755447 3.98391056060791
v 0.35339426994324 0.70083105564117 3.9166305065155
v 0.37489879131317 0.69925147294998 3.52457928657532
v 0.37489879131317 0.69925147294998 3.98391056060791
v 0.35009300708771 0.68417662382126 3.52457928657532
v 0.3527027964592 0.72133588790894 3.52457928657532
v 0.35122236609459 0.76523816585541 3.52457928657532
v 0.34843239188194 0.78865504264832 3.52457928657532
v 0.27932241559029 0.79112070798874 3.52457928657532
v -0.01110120024532 0.79112088680267 3.52457928657532
v -0.30152481794357 0.79112070798874 3.52457928657532
v -0.37063479423523 0.78865504264832 3.52457928657532
v -0.37342476844788 0.76523816585541 3.52457928657532
v -0.37490519881248 0.72133588790894 3.52457928657532
v -0.37229540944099 0.68417662382126 3.52457928657532
v -0.34244617819786 0.64753657579422 3.52457928657532
v -0.31073307991028 0.6136309504509 3.52457928657532
v -0.28104710578918 0.58599370718002 3.52457928657532
v -0.22501900792122 0.58288711309433 3.52457928657532
v -0.01110120024532 0.58288717269897 3.52457928657532
v 0.20281660556793 0.58288711309433 3.52457928657532
v 0.2588447034359 0.58599370718002 3.52457928657532
v 0.28853067755699 0.6136309504509 3.52457928657532
v 0.32024377584457 0.64753657579422 3.52457928657532
v 0.35009303689003 0.68417662382126 3.98391056060791
v 0.32024377584457 0.64753651618958 3.98391056060791
v 0.28853067755699 0.61363089084625 3.98391056060791
v 0.2588447034359 0.58599370718002 3.98391056060791
v 0.20281660556793 0.58288711309433 3.98391056060791
v -0.01110120024532 0.58288717269897 3.98391056060791
v -0.22501900792122 0.58288711309433 3.98391056060791
v -0.28104710578918 0.58599370718002 3.98391056060791
v -0.31073307991028 0.61363089084625 3.98391056060791
v -0.34244617819786 0.64753651618958 3.98391056060791
v -0.37229540944099 0.68417662382126 3.98391056060791
v -0.37490519881248 0.72133588790894 3.98391056060791
v -0.37342476844788 0.76523816585541 3.98391056060791
v -0.37063479423523 0.78865504264832 3.98391056060791
v -0.30152481794357 0.79112070798874 3.98391056060791
v -0.01110120024532 0.79112088680267 3.98391056060791
v 0.27932241559029 0.79112070798874 3.98391056060791
v 0.34843239188194 0.78865504264832 3.98391056060791
v 0.35122236609459 0.76523816585541 3.98391056060791
v 0.3527027964592 0.72133588790894 3.98391056060791
v -0.36036360263824 0.66669273376465 3.98391056060791
v -0.37559667229652 0.70083105564117 3.52457928657532
v 0.33816120028496 0.66669273376465 3.52457928657532
v -0.37559667229652 0.70083099603653 3.98391056060791
v 0.33816120028496 0.66669273376465 3.98391056060791
v -0.37416440248489 0.74330466985703 3.52457928657532
v 0.30408290028572 0.63025838136673 3.52457928657532
v -0.37416440248489 0.74330466985703 3.98391056060791
v 0.30408290028572 0.63025838136673 3.98391056060791
v -0.37279361486435 0.78395515680313 3.52457928657532
v 0.2725273668766 0.5965211391449 3.52457928657532
v -0.37279361486435 0.78395515680313 3.98391056060791
v 0.2725273668766 0.5965211391449 3.98391056060791
v -0.36110717058182 0.79112064838409 3.52457928657532
v 0.24575148522854 0.58288711309433 3.52457928657532
v -0.36110717058182 0.79112064838409 3.98391056060791
v 0.24575148522854 0.58288711309433 3.98391056060791
v -0.17286571860313 0.79112082719803 3.52457928657532
v 0.10813549906015 0.58288717269897 3.52457928657532
v -0.17286571860313 0.79112082719803 3.98391056060791
v 0.10813549906015 0.58288717269897 3.98391056060791
v 0.15066331624985 0.79112082719803 3.52457928657532
v -0.13033789396286 0.58288717269897 3.52457928657532
v 0.15066331624985 0.79112082719803 3.98391056060791
v -0.13033789396286 0.58288717269897 3.98391056060791
v 0.33890476822853 0.79112064838409 3.52457928657532
v -0.26795387268066 0.58288711309433 3.52457928657532
v 0.33890476822853 0.79112064838409 3.98391056060791
v -0.26795387268066 0.58288711309433 3.98391056060791
v 0.35059121251106 0.78395515680313 3.52457928657532
v -0.29472976922989 0.5965211391449 3.52457928657532
v 0.35059121251106 0.78395515680313 3.98391056060791
v -0.29472976922989 0.5965211391449 3.98391056060791
v 0.35196200013161 0.74330466985703 3.52457928657532
v -0.32628530263901 0.63025838136673 3.52457928657532
v 0.35196200013161 0.74330466985703 3.98391056060791
v -0.32628530263901 0.63025838136673 3.98391056060791
v 0.35339426994324 0.70083105564117 3.52457928657532
v -0.36036360263824 0.66669273376465 3.52457928657532
v 0.35339426994324 0.70083099603653 3.98391056060791
# 200 vertices

vn -0.92212229967117 0.38689854741096 0.00000003504821
vn -0.78044295310974 0.62522703409195 0.00000004178288
vn -0.78044295310974 0.6252269744873 0.00000002089144
vn -0.92212229967117 0.38689851760864 0.00000003987186
vn -0.73032587766647 0.68309891223907 0.00000005192672
vn -0.73032587766647 0.68309885263443 0.00000002596336
vn -0.73032587766647 0.68309891223907 0
vn -0.78044301271439 0.6252269744873 0
vn -0.92212229967117 0.38689851760864 0.00000004469551
vn -0.73032587766647 0.68309891223907 0.00000005372181
vn -0.73032587766647 0.68309885263443 0.00000002163077
vn -0.73032629489899 0.68309843540192 0.00000002937506
vn -0.73032629489899 0.68309843540192 0.00000008039364
vn -0.73032629489899 0.68309843540192 0.00000013141224
vn -0.73032587766647 0.68309885263443 -0.00000001046026
vn -0.67229253053665 0.74028557538986 -0.00000002857822
vn -0.67229235172272 0.7402857542038 0.00000014487411
vn -0.42989933490753 0.90287685394287 -0.00000003078549
vn -0.42989933490753 0.90287685394287 0.00000007430314
vn -0.42989933490753 0.90287685394287 0.00000017939178
vn -0.67229223251343 0.74028587341309 0.00000031832641
vn -0.11621624976397 0.99322390556335 -0.0000000382675
vn -0.11621625721455 0.99322390556335 0.00000009236157
vn 0.00000050444686 1 -0.00000007601641
vn 0.00000050444686 1 0.00000018347143
vn 0.00000050444686 1 0.00000044295928
vn -0.11621625721455 0.99322390556335 0.00000022299064
vn 0.00000015738263 1 -0.00000003800821
vn 0.00000015738263 1 0.00000009173571
vn 0 1 0
vn 0.00000015738263 1 0.00000022147964
vn -0.00000015738262 1 -0.0000000380082
vn -0.00000015738262 1 0.00000009173571
vn -0.00000050444686 1 -0.00000007601639
vn -0.00000050444686 1 0.0000001834714
vn -0.00000050444686 1 0.00000044295919
vn -0.00000015738262 1 0.00000022147962
vn 0.11621613055468 0.993223965168 -0.00000003826749
vn 0.11621613800526 0.993223965168 0.00000009236155
vn 0.42989858984947 0.90287721157074 0
vn 0.42989853024483 0.90287721157074 0
vn 0.42989856004715 0.90287721157074 0
vn 0.11621613055468 0.993223965168 0.00000022299058
vn 0.67229241132736 0.74028569459915 0.0000000260498
vn 0.67229217290878 0.74028587341309 0.0000000130249
vn 0.73032665252686 0.68309807777405 0.00000005192666
vn 0.73032659292221 0.68309813737869 0.00000002596333
vn 0.73032659292221 0.68309813737869 0
vn 0.67229205369949 0.74028599262238 0
vn 0.73032587766647 0.68309891223907 0.00000005192672
vn 0.73032587766647 0.68309891223907 0.00000002596336
vn 0.73032587766647 0.68309891223907 0.00000005192672
vn 0.73032587766647 0.68309891223907 0.00000002596336
vn 0.73032587766647 0.68309891223907 0
vn 0.73032587766647 0.68309885263443 0
vn 0.78044295310974 0.62522703409195 0.00000004178288
vn 0.78044307231903 0.62522685527802 -0.00000002497771
vn 0.92212229967117 0.38689854741096 0.00000003504821
vn 0.92212224006653 0.38689860701561 -0.00000006265011
vn 0.92212224006653 0.38689866662025 -0.00000016034843
vn 0.78044319152832 0.62522673606873 -0.00000009173829
vn 0.9967223405838 0.08089855313301 0.0000000187647
vn 0.9967223405838 0.08089865744114 -0.00000002738148
vn 0.99943190813065 -0.03370225802064 0.00000000126644
vn 0.99943190813065 -0.03370224684477 -0.00000000676289
vn 0.99943190813065 -0.0337022356689 -0.00000001479222
vn 0.9967223405838 0.08089874684811 -0.00000007352765
vn 0.99943190813065 -0.03370188176632 0.00000000258778
vn 0.99943190813065 -0.03370188176632 -0.0000000062458
vn 0.99943190813065 -0.03370214253664 0.00000000132133
vn 0.99943190813065 -0.03370214253664 -0.00000000318914
vn 0.99943190813065 -0.03370214253664 -0.00000000769962
vn 0.99943190813065 -0.03370188176632 -0.00000001507938
vn 0.97317427396774 -0.23006920516491 0
vn 0.97317427396774 -0.23006919026375 0
vn 0.90871983766556 -0.41740655899048 0
vn 0.90871983766556 -0.41740652918816 0
vn 0.9087198972702 -0.41740652918816 0
vn 0.25053188204765 -0.96810835599899 0
vn 0.12627728283405 -0.99199497699738 0
vn 0.00000096346287 -1 0
vn 0.00000064750856 -1 -0
vn 0.0000006475085 -1 0.00000000000001
vn -0.00000000000001 -1 0
vn -0.00000000000002 -1 -0
vn -0.00000000000003 -1 -0
vn 0.0000006475085 -1 0.00000000000002
vn -0.00000064750856 -1 0
vn -0.00000064750856 -1 -0.00000000000001
vn -0.00000096346298 -1 -0.00000000000002
vn -0.00000096346298 -1 0.00000000000005
vn -0.00000096346298 -1 0.00000000000011
vn -0.00000064750856 -1 -0.00000000000002
vn -0.12627710402012 -0.99199503660202 -0.00000000475247
vn -0.12627708911896 -0.99199503660202 0.00000001147044
vn -0.25053152441978 -0.96810841560364 -0.00000000942881
vn -0.25053149461746 -0.96810847520828 0.00000002275715
vn -0.25053149461746 -0.96810847520828 0.00000005494311
vn -0.12627708911896 -0.99199503660202 0.00000002769335
vn -0.90871983766556 -0.41740655899048 0
vn -0.97317427396774 -0.23006920516491 0
vn -0.97317427396774 -0.23006919026375 0
vn -0.90871983766556 -0.41740652918816 0
vn -0.99943190813065 -0.0337021201849 0
vn -0.99943190813065 -0.0337021201849 0
vn -0.9087198972702 -0.41740652918816 0
vn -0.99943190813065 -0.03370190411806 0.00000000128093
vn -0.99943190813065 -0.03370190411806 -0.00000000309162
vn -0.99943190813065 -0.03370227664709 0.00000000256193
vn -0.99943190813065 -0.03370226547122 -0.00000000988963
vn -0.99943190813065 -0.03370225429535 -0.00000002234119
vn -0.99943190813065 -0.03370190411806 -0.00000000746416
vn -0.9967223405838 0.08089859038591 0.00000002005417
vn -0.9967223405838 0.08089846372604 0.00000002457942
vn -0.9967223405838 0.08089835196733 0.00000002910467
vn 0.92212218046188 -0.38689875602722 -0.00000002984824
vn 0.7804428935051 -0.62522703409195 -0.00000001343728
vn 0.73032587766647 -0.68309885263443 0
vn 0 0 1
vn 0.7303261756897 -0.68309855461121 0
vn 0.73032706975937 -0.68309766054153 0
vn 0.67229264974594 -0.74028545618057 0
vn 0.42989677190781 -0.90287804603577 0
vn 0.11621471494436 -0.99322408437729 0
vn -0.00000031476526 -1 0
vn 0 -1 0
vn 0.00000031476529 -1 0
vn -0.11621471494436 -0.99322408437729 0
vn -0.42989677190781 -0.90287804603577 0
vn -0.67229300737381 -0.74028515815735 0
vn -0.73032701015472 -0.68309772014618 0
vn -0.73032587766647 -0.68309891223907 0
vn -0.73032587766647 -0.68309885263443 0
vn -0.7804428935051 -0.62522703409195 -0.00000001362548
vn -0.92212218046188 -0.38689875602722 -0.00000003010609
vn -0.99672228097916 -0.0808993652463 -0.00000001601616
vn -0.99943190813065 0.03370200842619 0
vn 0 0 -1
vn -0.99943190813065 0.03370188176632 0
vn -0.99943190813065 0.03370253369212 0
vn -0.97317415475845 0.23006956279278 0
vn -0.9087198972702 0.41740649938583 0
vn -0.25053125619888 0.96810853481293 0
vn -0.12627692520618 0.99199503660202 0
vn -0.00000094050813 1 0
vn -0.00000064750844 1 0
vn 0.00000064750844 1 0
vn 0.00000094050813 1 0
vn 0.12627692520618 0.99199503660202 0
vn 0.25053125619888 0.96810853481293 0
vn 0.9087198972702 0.41740649938583 0
vn 0.97317415475845 0.23006956279278 0
vn 0.99943190813065 0.03370253369212 0
vn 0.99943190813065 0.03370188176632 0
vn 0.99943190813065 0.03370200842619 0
vn 0.99672228097916 -0.0808993652463 -0.00000001595075
# 156 normals

o Top_Port
usemtl Metal bits
f 121//1 163//2 41//3 42//4
f 140//5 44//6 41//3 163//2
f 142//7 165//8 41//3 44//6
f 141//9 42//4 41//3 165//8
f 140//5 167//10 46//11 44//6
f 139//12 48//13 46//11 167//10
f 143//14 169//15 46//11 48//13
f 142//7 44//6 46//11 169//15
f 139//12 171//16 50//17 48//13
f 138//18 52//19 50//17 171//16
f 144//20 173//21 50//17 52//19
f 143//14 48//13 50//17 173//21
f 138//18 175//22 54//23 52//19
f 137//24 56//25 54//23 175//22
f 145//26 177//27 54//23 56//25
f 144//20 52//19 54//23 177//27
f 137//24 179//28 58//29 56//25
f 136//30 60//30 58//29 179//28
f 146//30 181//31 58//29 60//30
f 145//26 56//25 58//29 181//31
f 136//30 183//32 62//33 60//30
f 135//34 64//35 62//33 183//32
f 147//36 185//37 62//33 64//35
f 146//30 60//30 62//33 185//37
f 135//34 187//38 66//39 64//35
f 134//40 68//41 66//39 187//38
f 148//42 189//43 66//39 68//41
f 147//36 64//35 66//39 189//43
f 134//40 191//44 70//45 68//41
f 133//46 72//47 70//45 191//44
f 149//48 193//49 70//45 72//47
f 148//42 68//41 70//45 193//49
f 133//46 195//50 74//51 72//47
f 132//52 76//53 74//51 195//50
f 150//54 197//55 74//51 76//53
f 149//48 72//47 74//51 197//55
f 132//52 199//56 78//57 76//53
f 131//58 80//59 78//57 199//56
f 151//60 161//61 78//57 80//59
f 150//54 76//53 78//57 161//61
f 131//58 162//62 82//63 80//59
f 130//64 84//65 82//63 162//62
f 152//66 164//67 82//63 84//65
f 151//60 80//59 82//63 164//67
f 130//64 166//68 86//69 84//65
f 129//70 88//71 86//69 166//68
f 153//72 168//73 86//69 88//71
f 152//66 84//65 86//69 168//73
f 129//70 170//74 90//75 88//71
f 128//76 92//77 90//75 170//74
f 154//78 172//75 90//75 92//77
f 153//72 88//71 90//75 172//75
f 128//79 174//80 94//80 92//79
f 127//81 96//81 94//80 174//80
f 155//81 176//80 94//80 96//81
f 154//79 92//79 94//80 176//80
f 127//81 178//82 98//83 96//81
f 126//84 100//85 98//83 178//82
f 156//86 180//87 98//83 100//85
f 155//81 96//81 98//83 180//87
f 126//84 182//88 102//89 100//85
f 125//90 104//91 102//89 182//88
f 157//92 184//93 102//89 104//91
f 156//86 100//85 102//89 184//93
f 125//90 186//94 106//95 104//91
f 124//96 108//97 106//95 186//94
f 158//98 188//99 106//95 108//97
f 157//92 104//91 106//95 188//99
f 124//100 190//101 110//102 108//103
f 123//104 112//105 110//102 190//101
f 159//104 192//102 110//102 112//105
f 158//106 108//103 110//102 192//102
f 123//104 194//107 114//108 112//105
f 122//109 116//110 114//108 194//107
f 160//111 196//112 114//108 116//110
f 159//104 112//105 114//108 196//112
f 122//109 198//113 118//114 116//110
f 121//1 42//4 118//114 198//113
f 141//9 200//115 118//114 42//4
f 160//111 116//110 118//114 200//115
f 21//116 45//117 43//117 1//116
f 43//117 45//117 22//118 20//118
f 85//119 164//119 152//119 32//119
f 31//119 151//119 164//119 85//119
f 22//118 49//120 47//120 20//118
f 47//120 49//120 23//121 19//121
f 89//119 168//119 153//119 33//119
f 32//119 152//119 168//119 89//119
f 23//121 53//122 51//122 19//121
f 51//122 53//122 24//123 18//123
f 93//119 172//119 154//119 34//119
f 33//119 153//119 172//119 93//119
f 24//123 57//124 55//124 18//123
f 55//124 57//124 25//125 17//125
f 97//119 176//119 155//119 35//119
f 34//119 154//119 176//119 97//119
f 25//125 61//125 59//125 17//125
f 59//125 61//125 26//126 16//126
f 101//119 180//119 156//119 36//119
f 35//119 155//119 180//119 101//119
f 26//126 65//127 63//127 16//126
f 63//127 65//127 27//127 15//127
f 105//119 184//119 157//119 37//119
f 36//119 156//119 184//119 105//119
f 27//127 69//128 67//128 15//127
f 67//128 69//128 28//129 14//129
f 109//119 188//119 158//119 38//119
f 37//119 157//119 188//119 109//119
f 28//129 73//130 71//130 14//129
f 71//130 73//130 29//131 13//131
f 113//119 192//119 159//119 39//119
f 38//119 158//119 192//119 113//119
f 29//131 77//132 75//132 13//131
f 75//132 77//132 30//133 12//133
f 117//119 196//119 160//119 40//119
f 39//119 159//119 196//119 117//119
f 30//133 81//134 79//134 12//133
f 79//134 81//134 31//135 11//135
f 120//119 200//119 141//119 21//119
f 40//119 160//119 200//119 120//119
f 31//135 85//136 83//136 11//135
f 83//136 85//136 32//137 10//137
f 83//138 162//138 131//138 11//138
f 10//138 130//138 162//138 83//138
f 32//137 89//139 87//139 10//137
f 87//139 89//139 33//140 9//140
f 87//138 166//138 130//138 10//138
f 9//138 129//138 166//138 87//138
f 33//140 93//141 91//141 9//140
f 91//141 93//141 34//142 8//142
f 91//138 170//138 129//138 9//138
f 8//138 128//138 170//138 91//138
f 34//143 97//144 95//144 8//143
f 95//144 97//144 35//145 7//145
f 95//138 174//138 128//138 8//138
f 7//138 127//138 174//138 95//138
f 35//145 101//146 99//146 7//145
f 99//146 101//146 36//30 6//30
f 99//138 178//138 127//138 7//138
f 6//138 126//138 178//138 99//138
f 36//30 105//147 103//147 6//30
f 103//147 105//147 37//148 5//148
f 103//138 182//138 126//138 6//138
f 5//138 125//138 182//138 103//138
f 37//148 109//149 107//149 5//148
f 107//149 109//149 38//150 4//150
f 107//138 186//138 125//138 5//138
f 4//138 124//138 186//138 107//138
f 38//151 113//152 111//152 4//151
f 111//152 113//152 39//153 3//153
f 111//138 190//138 124//138 4//138
f 3//138 123//138 190//138 111//138
f 39//153 117//154 115//154 3//153
f 115//154 117//154 40//155 2//155
f 115//138 194//138 123//138 3//138
f 2//138 122//138 194//138 115//138
f 40//155 120//156 119//156 2//155
f 119//156 120//156 21//116 1//116
f 119//138 198//138 122//138 2//138
f 1//138 121//138 198//138 119//138
f 43//138 163//138 121//138 1//138
f 20//138 140//138 163//138 43//138
f 45//119 165//119 142//119 22//119
f 21//119 141//119 165//119 45//119
f 47//138 167//138 140//138 20//138
f 19//138 139//138 167//138 47//138
f 49//119 169//119 143//119 23//119
f 22//119 142//119 169//119 49//119
f 51//138 171//138 139//138 19//138
f 18//138 138//138 171//138 51//138
f 53//119 173//119 144//119 24//119
f 23//119 143//119 173//119 53//119
f 55//138 175//138 138//138 18//138
f 17//138 137//138 175//138 55//138
f 57//119 177//119 145//119 25//119
f 24//119 144//119 177//119 57//119
f 59//138 179//138 137//138 17//138
f 16//138 136//138 179//138 59//138
f 61//119 181//119 146//119 26//119
f 25//119 145//119 181//119 61//119
f 63//138 183//138 136//138 16//138
f 15//138 135//138 183//138 63//138
f 65//119 185//119 147//119 27//119
f 26//119 146//119 185//119 65//119
f 67//138 187//138 135//138 15//138
f 14//138 134//138 187//138 67//138
f 69//119 189//119 148//119 28//119
f 27//119 147//119 189//119 69//119
f 71//138 191//138 134//138 14//138
f 13//138 133//138 191//138 71//138
f 73//119 193//119 149//119 29//119
f 28//119 148//119 193//119 73//119
f 75//138 195//138 133//138 13//138
f 12//138 132//138 195//138 75//138
f 77//119 197//119 150//119 30//119
f 29//119 149//119 197//119 77//119
f 79//138 199//138 132//138 12//138
f 11//138 131//138 199//138 79//138
f 81//119 161//119 151//119 31//119
f 30//119 150//119 161//119 81//119

v 0.26961523294449 0.7131512761116 3.96192264556885
v 0.26961523294449 0.68097257614136 3.96192264556885
v -0.01090403087437 0.7131512761116 3.96192264556885
v -0.03246329724789 0.7131512761116 3.96192264556885
v 0.24805596470833 0.68097257614136 3.96192264556885
v 0.22649669647217 0.68097257614136 3.96192264556885
v 0.20493742823601 0.68097257614136 3.96192264556885
v 0.18337817490101 0.68097257614136 3.96192264556885
v 0.16181890666485 0.68097257614136 3.96192264556885
v 0.14025963842869 0.68097257614136 3.96192264556885
v 0.11870036274195 0.68097257614136 3.96192264556885
v 0.09714110195637 0.68097257614136 3.96192264556885
v 0.07558183372021 0.68097257614136 3.96192264556885
v 0.05402256548405 0.68097257614136 3.96192264556885
v 0.03246329724789 0.68097257614136 3.96192264556885
v 0.01090403087437 0.68097257614136 3.96192264556885
v 0.24805596470833 0.7131512761116 3.96192264556885
v 0.22649669647217 0.7131512761116 3.96192264556885
v 0.20493742823601 0.7131512761116 3.96192264556885
v 0.18337817490101 0.7131512761116 3.96192264556885
v 0.16181890666485 0.7131512761116 3.96192264556885
v 0.14025963842869 0.7131512761116 3.96192264556885
v 0.11870036274195 0.7131512761116 3.96192264556885
v 0.09714110195637 0.7131512761116 3.96192264556885
v 0.07558183372021 0.7131512761116 3.96192264556885
v 0.05402256548405 0.7131512761116 3.96192264556885
v 0.03246329724789 0.7131512761116 3.96192264556885
v 0.01090403087437 0.7131512761116 3.96192264556885
v -0.26961523294449 0.7131512761116 3.96192264556885
v -0.26961523294449 0.68097257614136 3.96192264556885
v -0.24805596470833 0.68097257614136 3.96192264556885
v -0.22649669647217 0.68097257614136 3.96192264556885
v -0.20493742823601 0.68097257614136 3.96192264556885
v -0.18337817490101 0.68097257614136 3.96192264556885
v -0.16181890666485 0.68097257614136 3.96192264556885
v -0.14025963842869 0.68097257614136 3.96192264556885
v -0.11870036274195 0.68097257614136 3.96192264556885
v -0.09714110195637 0.68097257614136 3.96192264556885
v -0.07558183372021 0.68097257614136 3.96192264556885
v -0.05402256548405 0.68097257614136 3.96192264556885
v -0.03246329724789 0.68097257614136 3.96192264556885
v -0.01090403087437 0.68097257614136 3.96192264556885
v -0.24805596470833 0.7131512761116 3.96192264556885
v -0.22649669647217 0.7131512761116 3.96192264556885
v -0.20493742823601 0.7131512761116 3.96192264556885
v -0.18337817490101 0.7131512761116 3.96192264556885
v -0.16181890666485 0.7131512761116 3.96192264556885
v -0.14025963842869 0.7131512761116 3.96192264556885
v -0.11870036274195 0.7131512761116 3.96192264556885
v -0.09714110195637 0.7131512761116 3.96192264556885
v -0.07558183372021 0.7131512761116 3.96192264556885
v -0.05402256548405 0.7131512761116 3.96192264556885
v 0.18337817490101 0.6970619559288 3.96192264556885
v 0.20493742823601 0.6970619559288 3.96192264556885
v 0.22649669647217 0.6970619559288 3.96192264556885
v 0.24805596470833 0.6970619559288 3.96192264556885
v 0.26961523294449 0.6970619559288 3.96192264556885
v 0.16181890666485 0.6970619559288 3.96192264556885
v 0.14025963842869 0.6970619559288 3.96192264556885
v 0.11870036274195 0.6970619559288 3.96192264556885
v 0.09714110195637 0.6970619559288 3.96192264556885
v 0.07558183372021 0.6970619559288 3.96192264556885
v 0.05402256548405 0.6970619559288 3.96192264556885
v 0.03246329724789 0.6970619559288 3.96192264556885
v 0.01090403087437 0.6970619559288 3.96192264556885
v -0.01090403087437 0.6970619559288 3.96192264556885
v -0.03246329724789 0.6970619559288 3.96192264556885
v -0.05402256548405 0.6970619559288 3.96192264556885
v -0.07558183372021 0.6970619559288 3.96192264556885
v -0.09714110195637 0.6970619559288 3.96192264556885
v -0.11870036274195 0.6970619559288 3.96192264556885
v -0.14025963842869 0.6970619559288 3.96192264556885
v -0.16181890666485 0.6970619559288 3.96192264556885
v -0.18337817490101 0.6970619559288 3.96192264556885
v -0.20493742823601 0.6970619559288 3.96192264556885
v -0.22649669647217 0.6970619559288 3.96192264556885
v -0.24805596470833 0.6970619559288 3.96192264556885
v -0.26961523294449 0.6970619559288 3.96192264556885
v 0.26961523294449 0.7131512761116 3.40810775756836
v 0.26961523294449 0.68097257614136 3.40810775756836
v -0.01090403087437 0.7131512761116 3.40810775756836
v -0.03246329724789 0.7131512761116 3.40810775756836
v 0.24805596470833 0.68097257614136 3.40810775756836
v 0.22649669647217 0.68097257614136 3.40810775756836
v 0.20493742823601 0.68097257614136 3.40810775756836
v 0.18337817490101 0.68097257614136 3.40810775756836
v 0.16181890666485 0.68097257614136 3.40810775756836
v 0.14025963842869 0.68097257614136 3.40810775756836
v 0.11870036274195 0.68097257614136 3.40810775756836
v 0.09714110195637 0.68097257614136 3.40810775756836
v 0.07558183372021 0.68097257614136 3.40810775756836
v 0.05402256548405 0.68097257614136 3.40810775756836
v 0.03246329724789 0.68097257614136 3.40810775756836
v 0.01090403087437 0.68097257614136 3.40810775756836
v 0.24805596470833 0.7131512761116 3.40810775756836
v 0.22649669647217 0.7131512761116 3.40810775756836
v 0.20493742823601 0.7131512761116 3.40810775756836
v 0.18337817490101 0.7131512761116 3.40810775756836
v 0.16181890666485 0.7131512761116 3.40810775756836
v 0.14025963842869 0.7131512761116 3.40810775756836
v 0.11870036274195 0.7131512761116 3.40810775756836
v 0.09714110195637 0.7131512761116 3.40810775756836
v 0.07558183372021 0.7131512761116 3.40810775756836
v 0.05402256548405 0.7131512761116 3.40810775756836
v 0.03246329724789 0.7131512761116 3.40810775756836
v 0.01090403087437 0.7131512761116 3.40810775756836
v -0.26961523294449 0.7131512761116 3.40810775756836
v -0.26961523294449 0.68097257614136 3.40810775756836
v -0.24805596470833 0.68097257614136 3.40810775756836
v -0.22649669647217 0.68097257614136 3.40810775756836
v -0.20493742823601 0.68097257614136 3.40810775756836
v -0.18337817490101 0.68097257614136 3.40810775756836
v -0.16181890666485 0.68097257614136 3.40810775756836
v -0.14025963842869 0.68097257614136 3.40810775756836
v -0.11870036274195 0.68097257614136 3.40810775756836
v -0.09714110195637 0.68097257614136 3.40810775756836
v -0.07558183372021 0.68097257614136 3.40810775756836
v -0.05402256548405 0.68097257614136 3.40810775756836
v -0.03246329724789 0.68097257614136 3.40810775756836
v -0.01090403087437 0.68097257614136 3.40810775756836
v -0.24805596470833 0.7131512761116 3.40810775756836
v -0.22649669647217 0.7131512761116 3.40810775756836
v -0.20493742823601 0.7131512761116 3.40810775756836
v -0.18337817490101 0.7131512761116 3.40810775756836
v -0.16181890666485 0.7131512761116 3.40810775756836
v -0.14025963842869 0.7131512761116 3.40810775756836
v -0.11870036274195 0.7131512761116 3.40810775756836
v -0.09714110195637 0.7131512761116 3.40810775756836
v -0.07558183372021 0.7131512761116 3.40810775756836
v -0.05402256548405 0.7131512761116 3.40810775756836
v 0.18337817490101 0.6970619559288 3.40810775756836
v 0.20493742823601 0.6970619559288 3.40810775756836
v 0.22649669647217 0.6970619559288 3.40810775756836
v 0.24805596470833 0.6970619559288 3.40810775756836
v 0.26961523294449 0.6970619559288 3.40810775756836
v 0.16181890666485 0.6970619559288 3.40810775756836
v 0.14025963842869 0.6970619559288 3.40810775756836
v 0.11870036274195 0.6970619559288 3.40810775756836
v 0.09714110195637 0.6970619559288 3.40810775756836
v 0.07558183372021 0.6970619559288 3.40810775756836
v 0.05402256548405 0.6970619559288 3.40810775756836
v 0.03246329724789 0.6970619559288 3.40810775756836
v 0.01090403087437 0.6970619559288 3.40810775756836
v -0.01090403087437 0.6970619559288 3.40810775756836
v -0.03246329724789 0.6970619559288 3.40810775756836
v -0.05402256548405 0.6970619559288 3.40810775756836
v -0.07558183372021 0.6970619559288 3.40810775756836
v -0.09714110195637 0.6970619559288 3.40810775756836
v -0.11870036274195 0.6970619559288 3.40810775756836
v -0.14025963842869 0.6970619559288 3.40810775756836
v -0.16181890666485 0.6970619559288 3.40810775756836
v -0.18337817490101 0.6970619559288 3.40810775756836
v -0.20493742823601 0.6970619559288 3.40810775756836
v -0.22649669647217 0.6970619559288 3.40810775756836
v -0.24805596470833 0.6970619559288 3.40810775756836
v -0.26961523294449 0.6970619559288 3.40810775756836
# 156 vertices

vn -1 0 0
vn 1 0 0
vn 0 1 0
vn 0 1 0
# 4 normals

o Port_internal
usemtl Shiny black
f 294//138 320//138 344//138 343//138
f 344//138 345//138 282//138 281//138
f 293//138 342//138 341//138 292//138
f 345//138 346//138 330//138 282//138
f 291//138 340//138 339//138 290//138
f 346//138 347//138 329//138 330//138
f 289//138 338//138 337//138 288//138
f 347//138 348//138 328//138 329//138
f 287//138 336//138 331//138 286//138
f 332//138 331//138 298//138 297//138
f 333//138 332//138 297//138 296//138
f 334//138 333//138 296//138 295//138
f 335//138 334//138 295//138 279//138
f 309//138 308//138 356//138 355//138
f 348//138 349//138 327//138 328//138
f 319//138 318//138 346//138 345//138
f 349//138 350//138 326//138 327//138
f 317//138 316//138 348//138 347//138
f 350//138 351//138 325//138 326//138
f 315//138 314//138 350//138 349//138
f 351//138 352//138 324//138 325//138
f 313//138 312//138 352//138 351//138
f 352//138 353//138 323//138 324//138
f 311//138 310//138 354//138 353//138
f 353//138 354//138 322//138 323//138
f 354//138 355//138 321//138 322//138
f 332//138 333//138 284//138 285//138
f 355//138 356//138 307//138 321//138
f 334//138 335//138 280//138 283//138
f 331//138 336//138 299//138 298//138
f 336//138 337//138 300//138 299//138
f 337//138 338//138 301//138 300//138
f 338//138 339//138 302//138 301//138
f 339//138 340//138 303//138 302//138
f 340//138 341//138 304//138 303//138
f 341//138 342//138 305//138 304//138
f 342//138 343//138 306//138 305//138
f 343//138 344//138 281//138 306//138
f 242//119 216//119 265//119 266//119
f 267//119 266//119 203//119 204//119
f 264//119 215//119 214//119 263//119
f 268//119 267//119 204//119 252//119
f 262//119 213//119 212//119 261//119
f 269//119 268//119 252//119 251//119
f 260//119 211//119 210//119 259//119
f 270//119 269//119 251//119 250//119
f 258//119 209//119 208//119 253//119
f 253//119 254//119 219//119 220//119
f 254//119 255//119 218//119 219//119
f 255//119 256//119 217//119 218//119
f 256//119 257//119 201//119 217//119
f 230//119 231//119 277//119 278//119
f 271//119 270//119 250//119 249//119
f 240//119 241//119 267//119 268//119
f 272//119 271//119 249//119 248//119
f 238//119 239//119 269//119 270//119
f 273//119 272//119 248//119 247//119
f 236//119 237//119 271//119 272//119
f 274//119 273//119 247//119 246//119
f 234//119 235//119 273//119 274//119
f 275//119 274//119 246//119 245//119
f 232//119 233//119 275//119 276//119
f 276//119 275//119 245//119 244//119
f 277//119 276//119 244//119 243//119
f 255//119 254//119 207//119 206//119
f 278//119 277//119 243//119 229//119
f 257//119 256//119 205//119 202//119
f 258//119 253//119 220//119 221//119
f 259//119 258//119 221//119 222//119
f 260//119 259//119 222//119 223//119
f 261//119 260//119 223//119 224//119
f 262//119 261//119 224//119 225//119
f 263//119 262//119 225//119 226//119
f 264//119 263//119 226//119 227//119
f 265//119 264//119 227//119 228//119
f 266//119 265//119 228//119 203//119
f 216//126 242//126 320//126 294//126
f 242//157 266//157 344//157 320//157
f 265//158 216//158 294//158 343//158
f 266//126 267//126 345//126 344//126
f 204//30 203//159 281//159 282//30
f 215//157 264//157 342//157 293//157
f 263//158 214//158 292//158 341//158
f 214//126 215//126 293//126 292//126
f 252//30 204//30 282//30 330//30
f 213//157 262//157 340//157 291//157
f 261//158 212//158 290//158 339//158
f 212//126 213//126 291//126 290//126
f 268//126 269//126 347//126 346//126
f 251//30 252//30 330//30 329//30
f 211//157 260//157 338//157 289//157
f 259//158 210//158 288//158 337//158
f 210//126 211//126 289//126 288//126
f 250//30 251//30 329//30 328//30
f 209//157 258//157 336//157 287//157
f 253//158 208//158 286//158 331//158
f 208//126 209//126 287//126 286//126
f 254//126 253//126 331//126 332//126
f 220//30 219//30 297//30 298//30
f 219//30 218//30 296//30 297//30
f 256//126 255//126 333//126 334//126
f 218//30 217//30 295//30 296//30
f 217//30 201//30 279//30 295//30
f 201//158 257//158 335//158 279//158
f 231//126 230//126 308//126 309//126
f 230//157 278//157 356//157 308//157
f 277//158 231//158 309//158 355//158
f 270//126 271//126 349//126 348//126
f 249//30 250//30 328//30 327//30
f 241//126 240//126 318//126 319//126
f 240//157 268//157 346//157 318//157
f 267//158 241//158 319//158 345//158
f 248//30 249//30 327//30 326//30
f 239//126 238//126 316//126 317//126
f 238//157 270//157 348//157 316//157
f 269//158 239//158 317//158 347//158
f 272//126 273//126 351//126 350//126
f 247//30 248//30 326//30 325//30
f 237//126 236//126 314//126 315//126
f 236//157 272//157 350//157 314//157
f 271//158 237//158 315//158 349//158
f 246//30 247//30 325//30 324//30
f 235//126 234//126 312//126 313//126
f 234//157 274//157 352//157 312//157
f 273//158 235//158 313//158 351//158
f 274//126 275//126 353//126 352//126
f 245//30 246//30 324//30 323//30
f 233//126 232//126 310//126 311//126
f 232//157 276//157 354//157 310//157
f 275//158 233//158 311//158 353//158
f 244//30 245//30 323//30 322//30
f 276//126 277//126 355//126 354//126
f 243//30 244//30 322//30 321//30
f 255//158 206//158 284//158 333//158
f 206//126 207//126 285//126 284//126
f 207//157 254//157 332//157 285//157
f 278//157 229//157 307//157 356//157
f 229//30 243//30 321//30 307//30
f 257//158 202//158 280//158 335//158
f 202//126 205//126 283//126 280//126
f 205//157 256//157 334//157 283//157
f 221//30 220//30 298//30 299//30
f 258//126 259//126 337//126 336//126
f 222//30 221//30 299//30 300//30
f 223//30 222//30 300//30 301//30
f 260//126 261//126 339//126 338//126
f 224//30 223//30 301//30 302//30
f 225//30 224//30 302//30 303//30
f 262//126 263//126 341//126 340//126
f 226//30 225//30 303//30 304//30
f 227//159 226//30 304//30 305//159
f 264//126 265//126 343//126 342//126
f 228//160 227//159 305//159 306//160
f 203//159 228//160 306//160 281//159

v -0.4147926568985 0.92052096128464 -2.04872465133667
v -0.4147926568985 0.87101519107819 -2.04872465133667
v 0.01677543111145 0.92052096128464 -2.04872465133667
v 0.04994353652 0.92052096128464 -2.04872465133667
v -0.38162457942963 0.87101519107819 -2.04872465133667
v -0.34845647215843 0.87101519107819 -2.04872465133667
v -0.31528836488724 0.87101519107819 -2.04872465133667
v -0.28212025761604 0.87101519107819 -2.04872465133667
v -0.24895215034485 0.87101519107819 -2.04872465133667
v -0.21578405797482 0.87101519107819 -2.04872465133667
v -0.18261595070362 0.87101519107819 -2.04872465133667
v -0.14944784343243 0.87101519107819 -2.04872465133667
v -0.11627974361181 0.87101519107819 -2.04872465133667
v -0.08311163634062 0.87101519107819 -2.04872465133667
v -0.04994353652 0.87101519107819 -2.04872465133667
v -0.01677543111145 0.87101519107819 -2.04872465133667
v -0.38162457942963 0.92052096128464 -2.04872465133667
v -0.34845647215843 0.92052096128464 -2.04872465133667
v -0.31528836488724 0.92052096128464 -2.04872465133667
v -0.28212025761604 0.92052096128464 -2.04872465133667
v -0.24895215034485 0.92052096128464 -2.04872465133667
v -0.21578405797482 0.92052096128464 -2.04872465133667
v -0.18261595070362 0.92052096128464 -2.04872465133667
v -0.14944784343243 0.92052096128464 -2.04872465133667
v -0.11627974361181 0.92052096128464 -2.04872465133667
v -0.08311163634062 0.92052096128464 -2.04872465133667
v -0.04994353652 0.92052096128464 -2.04872465133667
v -0.01677543111145 0.92052096128464 -2.04872465133667
v 0.4147926568985 0.92052096128464 -2.04872465133667
v 0.4147926568985 0.87101519107819 -2.04872465133667
v 0.38162457942963 0.87101519107819 -2.04872465133667
v 0.34845647215843 0.87101519107819 -2.04872465133667
v 0.31528836488724 0.87101519107819 -2.04872465133667
v 0.28212025761604 0.87101519107819 -2.04872465133667
v 0.24895215034485 0.87101519107819 -2.04872465133667
v 0.21578405797482 0.87101519107819 -2.04872465133667
v 0.18261595070362 0.87101519107819 -2.04872465133667
v 0.14944784343243 0.87101519107819 -2.04872465133667
v 0.11627974361181 0.87101519107819 -2.04872465133667
v 0.08311163634062 0.87101519107819 -2.04872465133667
v 0.04994353652 0.87101519107819 -2.04872465133667
v 0.01677543111145 0.87101519107819 -2.04872465133667
v 0.38162457942963 0.92052096128464 -2.04872465133667
v 0.34845647215843 0.92052096128464 -2.04872465133667
v 0.31528836488724 0.92052096128464 -2.04872465133667
v 0.28212025761604 0.92052096128464 -2.04872465133667
v 0.24895215034485 0.92052096128464 -2.04872465133667
v 0.21578405797482 0.92052096128464 -2.04872465133667
v 0.18261595070362 0.92052096128464 -2.04872465133667
v 0.14944784343243 0.92052096128464 -2.04872465133667
v 0.11627974361181 0.92052096128464 -2.04872465133667
v 0.08311163634062 0.92052096128464 -2.04872465133667
v -0.28212025761604 0.89576810598373 -2.04872465133667
v -0.31528836488724 0.89576810598373 -2.04872465133667
v -0.34845647215843 0.89576810598373 -2.04872465133667
v -0.38162457942963 0.89576810598373 -2.04872465133667
v -0.4147926568985 0.89576810598373 -2.04872465133667
v -0.24895215034485 0.89576810598373 -2.04872465133667
v -0.21578405797482 0.89576810598373 -2.04872465133667
v -0.18261595070362 0.89576810598373 -2.04872465133667
v -0.14944784343243 0.89576810598373 -2.04872465133667
v -0.11627974361181 0.89576810598373 -2.04872465133667
v -0.08311163634062 0.89576810598373 -2.04872465133667
v -0.04994353652 0.89576810598373 -2.04872465133667
v -0.01677543111145 0.89576810598373 -2.04872465133667
v 0.01677543111145 0.89576810598373 -2.04872465133667
v 0.04994353652 0.89576810598373 -2.04872465133667
v 0.08311163634062 0.89576810598373 -2.04872465133667
v 0.11627974361181 0.89576810598373 -2.04872465133667
v 0.14944784343243 0.89576810598373 -2.04872465133667
v 0.18261595070362 0.89576810598373 -2.04872465133667
v 0.21578405797482 0.89576810598373 -2.04872465133667
v 0.24895215034485 0.89576810598373 -2.04872465133667
v 0.28212025761604 0.89576810598373 -2.04872465133667
v 0.31528836488724 0.89576810598373 -2.04872465133667
v 0.34845647215843 0.89576810598373 -2.04872465133667
v 0.38162457942963 0.89576810598373 -2.04872465133667
v 0.4147926568985 0.89576810598373 -2.04872465133667
v -0.4147926568985 0.92052096128464 -1.19670188426971
v -0.4147926568985 0.87101519107819 -1.19670188426971
v 0.01677543111145 0.92052096128464 -1.19670188426971
v 0.04994353652 0.92052096128464 -1.19670188426971
v -0.38162457942963 0.87101519107819 -1.19670188426971
v -0.34845647215843 0.87101519107819 -1.19670188426971
v -0.31528836488724 0.87101519107819 -1.19670188426971
v -0.28212025761604 0.87101519107819 -1.19670188426971
v -0.24895215034485 0.87101519107819 -1.19670188426971
v -0.21578405797482 0.87101519107819 -1.19670188426971
v -0.18261595070362 0.87101519107819 -1.19670188426971
v -0.14944784343243 0.87101519107819 -1.19670188426971
v -0.11627974361181 0.87101519107819 -1.19670188426971
v -0.08311163634062 0.87101519107819 -1.19670188426971
v -0.04994353652 0.87101519107819 -1.19670188426971
v -0.01677543111145 0.87101519107819 -1.19670188426971
v -0.38162457942963 0.92052096128464 -1.19670188426971
v -0.34845647215843 0.92052096128464 -1.19670188426971
v -0.31528836488724 0.92052096128464 -1.19670188426971
v -0.28212025761604 0.92052096128464 -1.19670188426971
v -0.24895215034485 0.92052096128464 -1.19670188426971
v -0.21578405797482 0.92052096128464 -1.19670188426971
v -0.18261595070362 0.92052096128464 -1.19670188426971
v -0.14944784343243 0.92052096128464 -1.19670188426971
v -0.11627974361181 0.92052096128464 -1.19670188426971
v -0.08311163634062 0.92052096128464 -1.19670188426971
v -0.04994353652 0.92052096128464 -1.19670188426971
v -0.01677543111145 0.92052096128464 -1.19670188426971
v 0.4147926568985 0.92052096128464 -1.19670188426971
v 0.4147926568985 0.87101519107819 -1.19670188426971
v 0.38162457942963 0.87101519107819 -1.19670188426971
v 0.34845647215843 0.87101519107819 -1.19670188426971
v 0.31528836488724 0.87101519107819 -1.19670188426971
v 0.28212025761604 0.87101519107819 -1.19670188426971